<svg width="154" height="59" viewBox="0 0 154 59" fill="none" xmlns="http://www.w3.org/2000/svg">
<path d="M60.5078 16.1919L64.9178 16.1887L64.9263 27.7807L64.7609 31.3508C65.2921 30.1744 66.1454 29.2078 67.3208 28.4509C68.4962 27.6661 69.8679 27.2731 71.4359 27.2719C73.4239 27.2704 74.9502 27.6893 76.0149 28.5285C77.0795 29.3398 77.7943 30.4872 78.1594 31.971C78.5245 33.4547 78.7079 35.3866 78.7096 37.7666L78.7165 47.0486L74.2225 47.0519L74.2156 37.7279C74.2144 36.1039 74.1155 34.8299 73.9188 33.9061C73.7501 32.9822 73.3856 32.2825 72.8253 31.8069C72.2929 31.3313 71.5087 31.0938 70.4727 31.0946C69.6327 31.0952 68.7789 31.3479 67.9113 31.8525C67.0717 32.3571 66.3722 33.0996 65.8129 34.08C65.2536 35.0324 64.9745 36.1666 64.9754 37.4826L64.9825 47.0586L60.5305 47.0619L60.5078 16.1919ZM93.005 47.4581C91.269 47.4593 89.6587 47.0545 88.1741 46.2436C86.7175 45.4047 85.5406 44.2295 84.6435 42.7182C83.7744 41.1788 83.339 39.3872 83.3375 37.3432C83.3361 35.3272 83.7128 33.5629 84.4677 32.0503C85.2505 30.5378 86.3557 29.3609 87.7831 28.5199C89.2104 27.6788 90.8901 27.2576 92.8221 27.2562C93.9421 27.2554 94.9923 27.4506 95.9726 27.8419C96.9529 28.2332 97.7792 28.7226 98.4516 29.3101C99.1241 29.8696 99.5725 30.4292 99.7969 30.9891L99.8785 27.755L104.205 27.7518L104.219 47.0298L99.9347 47.033L99.8482 43.631C99.3729 44.6394 98.5056 45.536 97.2461 46.321C95.9867 47.0779 94.573 47.4569 93.005 47.4581ZM93.7582 43.6775C95.3542 43.6763 96.6978 43.1294 97.789 42.0366C98.8802 40.9158 99.4251 39.4593 99.4238 37.6674L99.4236 37.3734C99.4227 36.1694 99.1699 35.0915 98.6652 34.1399C98.1605 33.1883 97.4739 32.4468 96.6056 31.9154C95.7372 31.3841 94.785 31.1188 93.749 31.1195C91.957 31.1208 90.5714 31.7098 89.5923 32.8866C88.6131 34.0353 88.1242 35.5336 88.1256 37.3816C88.1269 39.2576 88.6041 40.7833 89.5569 41.9586C90.5378 43.1059 91.9382 43.6788 93.7582 43.6775ZM115.863 47.6093L107.868 27.7491L112.992 27.7454L117.117 40.0064L118.044 42.9877L118.965 40.005L123.282 27.7378L128.238 27.7342L116.416 57.6049L111.712 57.6083L115.863 47.6093ZM140.184 47.4234C138.196 47.4249 136.431 46.9782 134.891 46.0833C133.35 45.1884 132.159 43.9713 131.318 42.4319C130.477 40.8925 130.056 39.1849 130.054 37.3089C130.053 35.4609 130.458 33.7666 131.269 32.226C132.107 30.6853 133.297 29.4665 134.836 28.5693C136.375 27.6722 138.153 27.2229 140.169 27.2214C142.185 27.2199 143.949 27.6666 145.462 28.5615C147.003 29.4564 148.179 30.6735 148.993 32.2129C149.834 33.7523 150.255 35.446 150.256 37.294C150.258 39.17 149.839 40.8783 149 42.4189C148.161 43.9596 146.972 45.1784 145.433 46.0756C143.921 46.9727 142.172 47.422 140.184 47.4234ZM140.307 43.7273C141.931 43.7261 143.205 43.1232 144.128 41.9185C145.079 40.7138 145.554 39.2015 145.552 37.3815C145.551 35.5615 145.046 34.0358 144.037 32.8046C143.028 31.5453 141.698 30.9163 140.046 30.9175C138.45 30.9187 137.162 31.5356 136.183 32.7684C135.232 34.0011 134.757 35.5414 134.758 37.3894C134.76 39.1814 135.279 40.693 136.316 41.9243C137.353 43.1275 138.683 43.7285 140.307 43.7273Z" fill="black"/>
<path d="M60.5078 16.1919L60.5071 15.1919L59.5071 15.1927L59.5078 16.1927L60.5078 16.1919ZM64.9178 16.1887L65.9178 16.1879L65.9171 15.1879L64.9171 15.1887L64.9178 16.1887ZM64.9263 27.7807L65.9252 27.827L65.9263 27.8035L65.9263 27.7799L64.9263 27.7807ZM64.7609 31.3508L63.762 31.3045L65.6723 31.7623L64.7609 31.3508ZM67.3208 28.4509L67.8622 29.2917L67.8692 29.2872L67.8761 29.2826L67.3208 28.4509ZM76.0149 28.5285L75.3958 29.3139L75.4022 29.319L75.4088 29.3239L76.0149 28.5285ZM78.1594 31.971L79.1304 31.732L79.1304 31.732L78.1594 31.971ZM78.7165 47.0486L78.7172 48.0486L79.7172 48.0478L79.7165 47.0478L78.7165 47.0486ZM74.2225 47.0519L73.2225 47.0526L73.2232 48.0526L74.2232 48.0519L74.2225 47.0519ZM73.9188 33.9061L72.9351 34.0857L72.9377 34.1L72.9407 34.1143L73.9188 33.9061ZM72.8253 31.8069L72.159 32.5526L72.1685 32.5611L72.1782 32.5693L72.8253 31.8069ZM67.9113 31.8525L67.4085 30.9881L67.4023 30.9917L67.3962 30.9954L67.9113 31.8525ZM65.8129 34.08L66.6753 34.5865L66.6815 34.5755L65.8129 34.08ZM64.9825 47.0586L64.9832 48.0586L65.9832 48.0579L65.9825 47.0579L64.9825 47.0586ZM60.5305 47.0619L59.5305 47.0626L59.5312 48.0626L60.5312 48.0619L60.5305 47.0619ZM60.5085 17.1919L64.9185 17.1887L64.9171 15.1887L60.5071 15.1919L60.5085 17.1919ZM63.9178 16.1894L63.9263 27.7814L65.9263 27.7799L65.9178 16.1879L63.9178 16.1894ZM63.9274 27.7344L63.762 31.3045L65.7599 31.3971L65.9252 27.827L63.9274 27.7344ZM65.6723 31.7623C66.1175 30.7763 66.8348 29.9532 67.8622 29.2917L66.7794 27.6101C65.4559 28.4624 64.4666 29.5725 63.8495 30.9393L65.6723 31.7623ZM67.8761 29.2826C68.8696 28.6192 70.0437 28.2729 71.4367 28.2719L71.4352 26.2719C69.6922 26.2732 68.1228 26.713 66.7655 27.6193L67.8761 29.2826ZM71.4367 28.2719C73.301 28.2705 74.5735 28.6657 75.3958 29.3139L76.6339 27.7432C75.327 26.7129 73.5469 26.2703 71.4352 26.2719L71.4367 28.2719ZM75.4088 29.3239C76.2664 29.9774 76.8697 30.9148 77.1884 32.2099L79.1304 31.732C78.7189 30.0597 77.8925 28.7021 76.621 27.7331L75.4088 29.3239ZM77.1884 32.2099C77.5267 33.5851 77.7079 35.4283 77.7096 37.7673L79.7096 37.7658C79.7079 35.3448 79.5222 33.3243 79.1304 31.732L77.1884 32.2099ZM77.7096 37.7673L77.7165 47.0493L79.7165 47.0478L79.7096 37.7658L77.7096 37.7673ZM78.7157 46.0486L74.2217 46.0519L74.2232 48.0519L78.7172 48.0486L78.7157 46.0486ZM75.2225 47.0511L75.2156 37.7271L73.2156 37.7286L73.2225 47.0526L75.2225 47.0511ZM75.2156 37.7271C75.2144 36.0755 75.1148 34.7215 74.8969 33.6979L72.9407 34.1143C73.1162 34.9384 73.2144 36.1322 73.2156 37.7286L75.2156 37.7271ZM74.9025 33.7265C74.7041 32.6396 74.253 31.7071 73.4724 31.0445L72.1782 32.5693C72.5182 32.8579 72.7962 33.3248 72.9351 34.0857L74.9025 33.7265ZM73.4915 31.0612C72.7079 30.361 71.6447 30.0937 70.472 30.0946L70.4735 32.0946C71.3728 32.0939 71.878 32.3015 72.159 32.5526L73.4915 31.0612ZM70.472 30.0946C69.4241 30.0954 68.3988 30.4121 67.4085 30.9881L68.4141 32.7169C69.159 32.2836 69.8414 32.0951 70.4735 32.0946L70.472 30.0946ZM67.3962 30.9954C66.3886 31.6009 65.5754 32.4782 64.9443 33.5845L66.6815 34.5755C67.169 33.721 67.7547 33.1133 68.4264 32.7096L67.3962 30.9954ZM64.9506 33.5736C64.2851 34.7069 63.9744 36.0234 63.9754 37.4834L65.9754 37.4819C65.9746 36.3099 66.2221 35.358 66.6752 34.5864L64.9506 33.5736ZM63.9754 37.4834L63.9825 47.0594L65.9825 47.0579L65.9754 37.4819L63.9754 37.4834ZM64.9817 46.0586L60.5297 46.0619L60.5312 48.0619L64.9832 48.0586L64.9817 46.0586ZM61.5305 47.0612L61.5078 16.1912L59.5078 16.1927L59.5305 47.0626L61.5305 47.0612ZM88.1741 46.2436L87.675 47.1102L87.6848 47.1158L87.6947 47.1212L88.1741 46.2436ZM84.6435 42.7182L83.7727 43.2099L83.778 43.2193L83.7836 43.2286L84.6435 42.7182ZM84.4677 32.0503L83.5796 31.5907L83.5762 31.5972L83.5729 31.6038L84.4677 32.0503ZM95.9726 27.8419L96.3433 26.9131L96.3433 26.9131L95.9726 27.8419ZM98.4516 29.3101L97.7937 30.0631L97.8028 30.071L97.812 30.0788L98.4516 29.3101ZM99.7969 30.9891L98.8687 31.3611L100.797 31.0143L99.7969 30.9891ZM99.8785 27.755L99.8778 26.755L98.9034 26.7557L98.8788 27.7298L99.8785 27.755ZM104.205 27.7518L105.205 27.7511L105.204 26.7511L104.204 26.7518L104.205 27.7518ZM104.219 47.0298L104.219 48.0298L105.219 48.0291L105.219 47.0291L104.219 47.0298ZM99.9347 47.033L98.935 47.0584L98.9598 48.0337L99.9354 48.033L99.9347 47.033ZM99.8482 43.631L100.848 43.6056L98.9436 43.2047L99.8482 43.631ZM97.2461 46.321L97.7613 47.1781L97.7682 47.1739L97.7751 47.1696L97.2461 46.321ZM97.789 42.0366L98.4967 42.7432L98.5055 42.7341L97.789 42.0366ZM98.6652 34.1399L97.7817 34.6084L97.7817 34.6084L98.6652 34.1399ZM96.6056 31.9154L96.0836 32.7684L96.0836 32.7684L96.6056 31.9154ZM89.5923 32.8866L90.3534 33.5353L90.361 33.5262L89.5923 32.8866ZM89.5569 41.9586L88.7801 42.5884L88.7884 42.5985L88.7968 42.6084L89.5569 41.9586ZM93.0042 46.4581C91.4314 46.4592 89.9868 46.0943 88.6534 45.366L87.6947 47.1212C89.3305 48.0147 91.1065 48.4595 93.0057 48.4581L93.0042 46.4581ZM88.6732 45.3771C87.3723 44.6278 86.317 43.5784 85.5034 42.2078L83.7836 43.2286C84.7642 44.8807 86.0626 46.1815 87.675 47.1102L88.6732 45.3771ZM85.5143 42.2266C84.7421 40.859 84.3389 39.2416 84.3375 37.3424L82.3375 37.3439C82.3391 39.5328 82.8066 41.4987 83.7727 43.2099L85.5143 42.2266ZM84.3375 37.3424C84.3362 35.452 84.689 33.8462 85.3624 32.4969L83.5729 31.6038C82.7366 33.2795 82.336 35.2023 82.3375 37.3439L84.3375 37.3424ZM85.3557 32.51C86.0547 31.1596 87.0302 30.1242 88.2907 29.3815L87.2754 27.6583C85.6812 28.5977 84.4464 29.9159 83.5796 31.5907L85.3557 32.51ZM88.2907 29.3815C89.5406 28.645 91.0392 28.2575 92.8229 28.2562L92.8214 26.2562C90.7411 26.2577 88.8803 26.7127 87.2754 27.6583L88.2907 29.3815ZM92.8229 28.2562C93.8235 28.2555 94.7468 28.4293 95.6019 28.7706L96.3433 26.9131C95.2377 26.4719 94.0608 26.2553 92.8214 26.2562L92.8229 28.2562ZM95.6019 28.7706C96.4958 29.1274 97.2203 29.5621 97.7937 30.0631L99.1096 28.557C98.3381 27.883 97.4099 27.3389 96.3433 26.9131L95.6019 28.7706ZM97.812 30.0788C98.4104 30.5767 98.7276 31.0093 98.8687 31.3611L100.725 30.617C100.417 29.8492 99.8377 29.1625 99.0913 28.5414L97.812 30.0788ZM100.797 31.0143L100.878 27.7802L98.8788 27.7298L98.7972 30.9638L100.797 31.0143ZM99.8792 28.755L104.205 28.7518L104.204 26.7518L99.8778 26.755L99.8792 28.755ZM103.205 27.7526L103.219 47.0306L105.219 47.0291L105.205 27.7511L103.205 27.7526ZM104.218 46.0298L99.9339 46.033L99.9354 48.033L104.219 48.0298L104.218 46.0298ZM100.934 47.0076L100.848 43.6056L98.8485 43.6565L98.935 47.0584L100.934 47.0076ZM98.9436 43.2047C98.5734 43.9902 97.8663 44.7561 96.7172 45.4723L97.7751 47.1696C99.1449 46.3159 100.172 45.2886 100.753 44.0574L98.9436 43.2047ZM96.731 45.4638C95.6374 46.1211 94.4036 46.457 93.0042 46.4581L93.0057 48.4581C94.7423 48.4568 96.336 48.0347 97.7613 47.1781L96.731 45.4638ZM93.7589 44.6775C95.6102 44.6762 97.2111 44.0305 98.4966 42.7431L97.0814 41.33C96.1845 42.2282 95.0982 42.6765 93.7575 42.6775L93.7589 44.6775ZM98.5055 42.7341C99.8054 41.3989 100.425 39.6784 100.424 37.6666L98.4238 37.6681C98.4249 39.2403 97.9549 40.4326 97.0725 41.339L98.5055 42.7341ZM100.424 37.6666L100.424 37.3726L98.4236 37.3741L98.4238 37.6681L100.424 37.6666ZM100.424 37.3726C100.423 36.025 100.138 34.7834 99.5486 33.6714L97.7817 34.6084C98.2014 35.3997 98.4228 36.3137 98.4236 37.3741L100.424 37.3726ZM99.5486 33.6714C98.9651 32.5711 98.1576 31.6928 97.1275 31.0624L96.0836 32.7684C96.7903 33.2008 97.3559 33.8055 97.7817 34.6084L99.5486 33.6714ZM97.1275 31.0624C96.0989 30.433 94.9653 30.1186 93.7482 30.1195L93.7497 32.1195C94.6047 32.1189 95.3755 32.3351 96.0836 32.7684L97.1275 31.0624ZM93.7482 30.1195C91.7158 30.121 90.0258 30.8021 88.8236 32.2469L90.361 33.5262C91.117 32.6176 92.1982 32.1207 93.7497 32.1195L93.7482 30.1195ZM88.8312 32.2379C87.6651 33.6059 87.1241 35.3518 87.1256 37.3824L89.1256 37.3809C89.1243 35.7155 89.5611 34.4647 90.3533 33.5353L88.8312 32.2379ZM87.1256 37.3824C87.1271 39.431 87.6511 41.1957 88.7801 42.5884L90.3337 41.3288C89.557 40.3709 89.1268 39.0843 89.1256 37.3809L87.1256 37.3824ZM88.7968 42.6084C90.0069 44.0239 91.7124 44.679 93.7589 44.6775L93.7575 42.6775C92.164 42.6787 91.0686 42.1879 90.317 41.3088L88.7968 42.6084ZM115.863 47.6093L116.787 47.9927L116.943 47.6151L116.791 47.2359L115.863 47.6093ZM107.868 27.7491L107.868 26.7491L106.388 26.7502L106.941 28.1226L107.868 27.7491ZM112.992 27.7454L113.94 27.4265L113.711 26.7449L112.992 26.7454L112.992 27.7454ZM117.117 40.0064L118.072 39.7097L118.069 39.6985L118.065 39.6875L117.117 40.0064ZM118.044 42.9877L117.089 43.2844L118.046 46.3663L118.999 43.283L118.044 42.9877ZM118.965 40.005L118.022 39.673L118.016 39.6913L118.01 39.7097L118.965 40.005ZM123.282 27.7378L123.282 26.7378L122.574 26.7383L122.339 27.4059L123.282 27.7378ZM128.238 27.7342L129.168 28.1022L129.71 26.7331L128.238 26.7342L128.238 27.7342ZM116.416 57.6049L116.417 58.6049L117.096 58.6044L117.346 57.9729L116.416 57.6049ZM111.712 57.6083L110.789 57.2249L110.214 58.6094L111.713 58.6083L111.712 57.6083ZM116.791 47.2359L108.796 27.3757L106.941 28.1226L114.935 47.9827L116.791 47.2359ZM107.869 28.7491L112.993 28.7454L112.992 26.7454L107.868 26.7491L107.869 28.7491ZM112.045 28.0643L116.17 40.3252L118.065 39.6875L113.94 27.4265L112.045 28.0643ZM116.162 40.303L117.089 43.2844L118.999 42.691L118.072 39.7097L116.162 40.303ZM118.999 43.283L119.921 40.3003L118.01 39.7097L117.088 42.6924L118.999 43.283ZM119.909 40.337L124.226 28.0698L122.339 27.4059L118.022 39.673L119.909 40.337ZM123.283 28.7378L128.239 28.7342L128.238 26.7342L123.282 26.7378L123.283 28.7378ZM127.309 27.3662L115.486 57.2369L117.346 57.9729L129.168 28.1022L127.309 27.3662ZM116.416 56.6049L111.712 56.6083L111.713 58.6083L116.417 58.6049L116.416 56.6049ZM112.636 57.9917L116.787 47.9927L114.939 47.2259L110.789 57.2249L112.636 57.9917ZM134.891 46.0833L135.393 45.2186L135.393 45.2186L134.891 46.0833ZM131.318 42.4319L130.441 42.9114L130.441 42.9114L131.318 42.4319ZM131.269 32.226L130.39 31.7477L130.384 31.7602L131.269 32.226ZM134.836 28.5693L134.332 27.7054L134.332 27.7054L134.836 28.5693ZM145.462 28.5615L144.953 29.4222L144.96 29.4263L145.462 28.5615ZM148.993 32.2129L148.108 32.6801L148.115 32.6924L148.993 32.2129ZM149 42.4189L148.122 41.9407L148.122 41.9407L149 42.4189ZM145.433 46.0756L144.929 45.2116L144.922 45.2156L145.433 46.0756ZM144.128 41.9185L143.343 41.2989L143.338 41.3045L143.334 41.3103L144.128 41.9185ZM144.037 32.8046L143.257 33.4299L143.264 33.4384L144.037 32.8046ZM136.183 32.7684L135.4 32.1463L135.391 32.1575L136.183 32.7684ZM136.316 41.9243L135.551 42.5685L135.558 42.5771L136.316 41.9243ZM140.183 46.4234C138.351 46.4248 136.764 46.0148 135.393 45.2186L134.389 46.948C136.099 47.9416 138.041 48.425 140.184 48.4234L140.183 46.4234ZM135.393 45.2186C134.008 44.4139 132.948 43.3289 132.196 41.9524L130.441 42.9114C131.371 44.6137 132.693 45.9629 134.389 46.948L135.393 45.2186ZM132.196 41.9524C131.44 40.57 131.056 39.0288 131.054 37.3081L129.054 37.3096C129.056 39.3409 129.514 41.2151 130.441 42.9114L132.196 41.9524ZM131.054 37.3081C131.053 35.6124 131.423 34.0796 132.154 32.6917L130.384 31.7602C129.492 33.4535 129.053 35.3093 129.054 37.3096L131.054 37.3081ZM132.147 32.7042C132.897 31.3266 133.955 30.24 135.339 29.4333L134.332 27.7054C132.638 28.6929 131.318 30.0441 130.39 31.7478L132.147 32.7042ZM135.339 29.4333C136.707 28.6364 138.307 28.2228 140.17 28.2214L140.168 26.2214C137.999 26.223 136.044 26.7081 134.332 27.7054L135.339 29.4333ZM140.17 28.2214C142.033 28.2201 143.616 28.6314 144.953 29.4222L145.971 27.7009C144.282 26.7019 142.337 26.2198 140.168 26.2214L140.17 28.2214ZM144.96 29.4263C146.342 30.2293 147.385 31.3104 148.108 32.68L149.877 31.7459C148.974 30.0367 147.663 28.6835 145.964 27.6968L144.96 29.4263ZM148.115 32.6924C148.872 34.0771 149.255 35.6048 149.256 37.2948L151.256 37.2933C151.255 35.2872 150.796 33.4276 149.87 31.7334L148.115 32.6924ZM149.256 37.2948C149.258 39.0154 148.875 40.5572 148.122 41.9407L149.878 42.8972C150.803 41.1994 151.258 39.3246 151.256 37.2933L149.256 37.2948ZM148.122 41.9407C147.372 43.3183 146.313 44.4049 144.929 45.2116L145.936 46.9395C147.631 45.952 148.951 44.6008 149.878 42.8972L148.122 41.9407ZM144.922 45.2156C143.585 46.0097 142.016 46.4221 140.183 46.4234L140.184 48.4234C142.328 48.4218 144.258 47.9357 145.943 46.9355L144.922 45.2156ZM140.308 44.7273C142.217 44.7259 143.794 43.9975 144.921 42.5268L143.334 41.3103C142.615 42.2489 141.645 42.7263 140.306 42.7273L140.308 44.7273ZM144.913 42.5382C146.028 41.1255 146.554 39.3824 146.552 37.3807L144.552 37.3822C144.554 39.0205 144.13 40.3022 143.343 41.2989L144.913 42.5382ZM146.552 37.3807C146.551 35.3648 145.986 33.6059 144.811 32.1708L143.264 33.4384C144.105 34.4658 144.551 35.7581 144.552 37.3822L146.552 37.3807ZM144.817 32.1793C143.613 30.6765 141.992 29.9161 140.045 29.9175L140.046 31.9175C141.403 31.9165 142.443 32.4142 143.257 33.4299L144.817 32.1793ZM140.045 29.9175C138.149 29.9189 136.572 30.6712 135.4 32.1464L136.966 33.3903C137.753 32.4001 138.75 31.9185 140.046 31.9175L140.045 29.9175ZM135.391 32.1575C134.281 33.5965 133.757 35.3637 133.758 37.3901L135.758 37.3887C135.757 35.7191 136.183 34.4056 136.975 33.3792L135.391 32.1575ZM133.758 37.3901C133.76 39.3891 134.345 41.1364 135.551 42.5684L137.081 41.2801C136.213 40.2496 135.76 38.9737 135.758 37.3887L133.758 37.3901ZM135.558 42.5771C136.79 44.0066 138.4 44.7287 140.308 44.7273L140.306 42.7273C138.966 42.7283 137.915 42.2484 137.073 41.2715L135.558 42.5771Z" fill="#FCFCFC"/>
<ellipse cx="28.9334" cy="27.4719" rx="28.7593" ry="26.9429" transform="rotate(-0.0420757 28.9334 27.4719)" fill="url(#paint0_linear)"/>
<defs>
<linearGradient id="paint0_linear" x1="28.9334" y1="0.528984" x2="28.9334" y2="54.4148" gradientUnits="userSpaceOnUse">
<stop/>
<stop offset="0.206406"/>
<stop offset="1" stop-color="#FCFCFC"/>
</linearGradient>
</defs>
</svg>
