<svg width="149" height="61" viewBox="0 0 149 61" fill="none" xmlns="http://www.w3.org/2000/svg">
<path d="M58.1909 16.4711L61.9693 16.364L62.2509 26.296L62.1937 29.3588C62.6209 28.3383 63.3292 27.4899 64.3184 26.8136C65.307 26.1133 66.473 25.7441 67.8164 25.706C69.5197 25.6577 70.8374 25.9805 71.7695 26.6744C72.7008 27.3443 73.3405 28.3105 73.6884 29.5732C74.0363 30.8358 74.2392 32.4867 74.297 34.5259L74.5224 42.4787L70.672 42.5879L70.4455 34.5991C70.406 33.2076 70.2911 32.1185 70.1008 31.3315C69.9344 30.5439 69.6055 29.953 69.1141 29.5588C68.6467 29.1639 67.9692 28.979 67.0816 29.0042C66.3619 29.0246 65.6363 29.2612 64.9048 29.7141C64.1974 30.1664 63.6156 30.8191 63.1596 31.6724C62.7029 32.5016 62.4906 33.4801 62.5226 34.6076L62.7551 42.8123L58.9407 42.9204L58.1909 16.4711ZM86.7747 42.4915C85.2873 42.5337 83.898 42.2249 82.6068 41.5653C81.3389 40.8809 80.3028 39.9019 79.4983 38.6282C78.7172 37.3298 78.3018 35.8049 78.2522 34.0536C78.2032 32.3263 78.4843 30.8058 79.0953 29.4919C79.7303 28.1774 80.6493 27.1429 81.8524 26.3885C83.0555 25.6341 84.4848 25.2335 86.1401 25.1865C87.0997 25.1593 88.0041 25.3018 88.8533 25.6138C89.7025 25.9259 90.4221 26.3257 91.0121 26.8131C91.6015 27.2766 91.999 27.7455 92.2045 28.2199L92.1979 25.447L95.9044 25.3419L96.3727 41.8593L92.7021 41.9633L92.5475 39.0505C92.1642 39.9258 91.4423 40.7145 90.3817 41.4169C89.3205 42.0952 88.1182 42.4534 86.7747 42.4915ZM87.3307 39.2345C88.6981 39.1957 89.8364 38.6952 90.7455 37.7331C91.6539 36.7469 92.0864 35.4862 92.0428 33.9508L92.0357 33.6989C92.0064 32.6673 91.7643 31.7498 91.3094 30.9464C90.8544 30.1429 90.2487 29.5239 89.492 29.0891C88.7354 28.6544 87.9133 28.4496 87.0256 28.4748C85.4902 28.5183 84.317 29.0558 83.5059 30.0872C82.6941 31.0946 82.3107 32.39 82.3556 33.9733C82.4011 35.5807 82.846 36.8766 83.6903 37.8611C84.5578 38.8209 85.7713 39.2787 87.3307 39.2345ZM106.363 42.0803L99.0436 25.2529L103.434 25.1285L107.258 35.5363L108.122 38.0688L108.842 35.4914L112.25 24.8785L116.497 24.7581L107.074 50.6315L103.044 50.7458L106.363 42.0803ZM127.197 41.3456C125.494 41.3939 123.972 41.0529 122.631 40.3226C121.289 39.5923 120.24 38.5776 119.483 37.2785C118.726 35.9795 118.325 34.5263 118.279 32.9189C118.234 31.3355 118.541 29.8743 119.199 28.5351C119.882 27.1952 120.872 26.1227 122.169 25.3176C123.467 24.5125 124.979 24.0855 126.707 24.0365C128.434 23.9875 129.956 24.3285 131.274 25.0595C132.615 25.7898 133.652 26.8048 134.385 28.1046C135.142 29.4036 135.543 30.8448 135.588 32.4282C135.634 34.0356 135.315 35.5092 134.633 36.849C133.951 38.1889 132.961 39.2614 131.663 40.0665C130.389 40.8709 128.901 41.2973 127.197 41.3456ZM127.216 38.1758C128.607 38.1363 129.684 37.5896 130.446 36.5356C131.233 35.4809 131.604 34.1738 131.56 32.6144C131.516 31.0551 131.047 29.7598 130.153 28.7287C129.259 27.6737 128.104 27.1662 126.689 27.2063C125.321 27.2451 124.233 27.8041 123.423 28.8835C122.637 29.9622 122.267 31.2933 122.312 32.8766C122.355 34.412 122.836 35.6949 123.753 36.7253C124.67 37.7317 125.824 38.2152 127.216 38.1758Z" fill="black"/>
<path d="M58.1909 16.4711L58.1625 15.4715L57.1629 15.4998L57.1913 16.4994L58.1909 16.4711ZM61.9693 16.364L62.9689 16.3356L62.9406 15.336L61.941 15.3644L61.9693 16.364ZM62.2509 26.296L63.2507 26.3146L63.2512 26.2911L63.2505 26.2676L62.2509 26.296ZM62.1937 29.3588L61.1939 29.3401L63.1161 29.745L62.1937 29.3588ZM64.3184 26.8136L64.8828 27.6391L64.8897 27.6344L64.8965 27.6296L64.3184 26.8136ZM71.7695 26.6744L71.1723 27.4765L71.1789 27.4814L71.1856 27.4862L71.7695 26.6744ZM73.6884 29.5732L74.6524 29.3075L74.6524 29.3075L73.6884 29.5732ZM74.5224 42.4787L74.5508 43.4783L75.5504 43.45L75.522 42.4504L74.5224 42.4787ZM70.672 42.5879L69.6724 42.6162L69.7007 43.6158L70.7003 43.5875L70.672 42.5879ZM70.1008 31.3315L69.1224 31.5382L69.1254 31.5525L69.1288 31.5667L70.1008 31.3315ZM69.1141 29.5588L68.4687 30.3226L68.4784 30.3308L68.4883 30.3388L69.1141 29.5588ZM64.9048 29.7141L64.3784 28.8639L64.3723 28.8677L64.3662 28.8716L64.9048 29.7141ZM63.1596 31.6724L64.0357 32.1548L64.0416 32.1437L63.1596 31.6724ZM62.7551 42.8123L62.7835 43.8119L63.7831 43.7836L63.7547 42.784L62.7551 42.8123ZM58.9407 42.9204L57.9411 42.9488L57.9694 43.9484L58.969 43.92L58.9407 42.9204ZM58.2192 17.4707L61.9977 17.3635L61.941 15.3644L58.1625 15.4715L58.2192 17.4707ZM60.9697 16.3923L61.2513 26.3243L63.2505 26.2676L62.9689 16.3356L60.9697 16.3923ZM61.2511 26.2773L61.1939 29.3401L63.1935 29.3775L63.2507 26.3146L61.2511 26.2773ZM63.1161 29.745C63.4627 28.9172 64.039 28.216 64.8828 27.6391L63.754 25.9881C62.6194 26.7638 61.7792 27.7594 61.2713 28.9726L63.1161 29.745ZM64.8965 27.6296C65.7065 27.0557 66.6762 26.7387 67.8448 26.7056L67.7881 24.7064C66.2697 24.7495 64.9074 25.1709 63.7404 25.9976L64.8965 27.6296ZM67.8448 26.7056C69.4245 26.6608 70.4878 26.9669 71.1723 27.4765L72.3666 25.8723C71.187 24.9941 69.615 24.6546 67.7881 24.7064L67.8448 26.7056ZM71.1856 27.4862C71.9057 28.0041 72.428 28.7634 72.7243 29.8388L74.6524 29.3075C74.2529 27.8576 73.496 26.6844 72.3534 25.8626L71.1856 27.4862ZM72.7243 29.8388C73.0425 30.9937 73.2407 32.5561 73.2974 34.5542L75.2966 34.4976C75.2376 32.4174 75.0301 30.6779 74.6524 29.3075L72.7243 29.8388ZM73.2974 34.5542L73.5228 42.5071L75.522 42.4504L75.2966 34.4976L73.2974 34.5542ZM74.4941 41.4791L70.6436 41.5883L70.7003 43.5875L74.5508 43.4783L74.4941 41.4791ZM71.6716 42.5595L71.4451 34.5707L69.4459 34.6274L69.6724 42.6162L71.6716 42.5595ZM71.4451 34.5707C71.4049 33.1517 71.2871 31.9825 71.0727 31.0964L69.1288 31.5667C69.2952 32.2545 69.4072 33.2636 69.4459 34.6274L71.4451 34.5707ZM71.0792 31.1248C70.8785 30.1751 70.4567 29.3539 69.7399 28.7788L68.4883 30.3388C68.7543 30.5522 68.9902 30.9127 69.1224 31.5382L71.0792 31.1248ZM69.7595 28.7949C69.0348 28.1825 68.0775 27.9755 67.0533 28.0046L67.1099 30.0038C67.8609 29.9825 68.2587 30.1452 68.4687 30.3226L69.7595 28.7949ZM67.0533 28.0046C66.1257 28.0309 65.2305 28.3363 64.3784 28.8639L65.4313 30.5643C66.0421 30.1861 66.5981 30.0183 67.1099 30.0038L67.0533 28.0046ZM64.3662 28.8716C63.4937 29.4293 62.802 30.2199 62.2777 31.201L64.0416 32.1437C64.4293 31.4183 64.901 30.9034 65.4434 30.5567L64.3662 28.8716ZM62.2837 31.19C61.7258 32.203 61.4869 33.3645 61.523 34.6359L63.5221 34.5793C63.4943 33.5956 63.6801 32.8003 64.0356 32.1548L62.2837 31.19ZM61.523 34.6359L61.7555 42.8406L63.7547 42.784L63.5221 34.5793L61.523 34.6359ZM62.7268 41.8127L58.9123 41.9208L58.969 43.92L62.7835 43.8119L62.7268 41.8127ZM59.9403 42.8921L59.1905 16.4427L57.1913 16.4994L57.9411 42.9488L59.9403 42.8921ZM82.6068 41.5653L82.1318 42.4453L82.1418 42.4506L82.1519 42.4558L82.6068 41.5653ZM79.4983 38.6282L78.6414 39.1437L78.647 39.153L78.6528 39.1621L79.4983 38.6282ZM79.0953 29.4919L78.1948 29.0569L78.1916 29.0636L78.1885 29.0702L79.0953 29.4919ZM88.8533 25.6138L89.1982 24.6752L89.1982 24.6752L88.8533 25.6138ZM91.0121 26.8131L90.3752 27.5841L90.3845 27.5917L90.394 27.5992L91.0121 26.8131ZM92.2045 28.2199L91.2869 28.6175L93.2045 28.2175L92.2045 28.2199ZM92.1979 25.447L92.1696 24.4474L91.1956 24.475L91.1979 25.4494L92.1979 25.447ZM95.9044 25.3419L96.904 25.3136L96.8757 24.314L95.8761 24.3423L95.9044 25.3419ZM96.3727 41.8593L96.401 42.8589L97.4006 42.8305L97.3723 41.8309L96.3727 41.8593ZM92.7021 41.9633L91.7036 42.0163L91.7553 42.9906L92.7305 42.9629L92.7021 41.9633ZM92.5475 39.0505L93.5461 38.9975L91.6316 38.6493L92.5475 39.0505ZM90.3817 41.4169L90.9203 42.2594L90.9271 42.2551L90.9339 42.2506L90.3817 41.4169ZM90.7455 37.7331L91.4724 38.4199L91.481 38.4106L90.7455 37.7331ZM91.3094 30.9464L90.4392 31.4391L90.4392 31.4391L91.3094 30.9464ZM89.492 29.0891L88.9938 29.9562L88.9938 29.9562L89.492 29.0891ZM83.5059 30.0872L84.2846 30.7147L84.292 30.7053L83.5059 30.0872ZM83.6903 37.8611L82.9312 38.512L82.9397 38.5219L82.9484 38.5316L83.6903 37.8611ZM86.7464 41.4919C85.4221 41.5295 84.1996 41.256 83.0618 40.6747L82.1519 42.4558C83.5965 43.1938 85.1526 43.5379 86.8031 43.4911L86.7464 41.4919ZM83.0818 40.6853C81.9721 40.0863 81.0609 39.2295 80.3438 38.0942L78.6528 39.1621C79.5446 40.5742 80.7058 41.6755 82.1318 42.4453L83.0818 40.6853ZM80.3552 38.1127C79.6758 36.9833 79.2973 35.6318 79.2518 34.0253L77.2526 34.082C77.3064 35.9781 77.7586 37.6762 78.6414 39.1437L80.3552 38.1127ZM79.2518 34.0253C79.2064 32.4235 79.4679 31.0621 80.002 29.9136L78.1885 29.0702C77.5006 30.5495 77.2001 32.2291 77.2526 34.082L79.2518 34.0253ZM79.9957 29.9269C80.5513 28.7768 81.3446 27.8873 82.3837 27.2358L81.3212 25.5413C79.954 26.3986 78.9093 27.578 78.1948 29.0569L79.9957 29.9269ZM82.3837 27.2358C83.4122 26.5908 84.6614 26.2289 86.1684 26.1861L86.1118 24.1869C84.3082 24.2381 82.6989 24.6775 81.3212 25.5413L82.3837 27.2358ZM86.1684 26.1861C87.0087 26.1623 87.7858 26.2869 88.5084 26.5525L89.1982 24.6752C88.2225 24.3166 87.1907 24.1564 86.1118 24.1869L86.1684 26.1861ZM88.5084 26.5525C89.2703 26.8325 89.8866 27.1804 90.3752 27.5841L91.6491 26.0422C90.9576 25.471 90.1347 25.0193 89.1982 24.6752L88.5084 26.5525ZM90.394 27.5992C90.9077 28.0032 91.1705 28.3487 91.2869 28.6175L93.1221 27.8224C92.8275 27.1424 92.2954 26.5501 91.6303 26.0271L90.394 27.5992ZM93.2045 28.2175L93.1979 25.4446L91.1979 25.4494L91.2045 28.2223L93.2045 28.2175ZM92.2262 26.4466L95.9328 26.3415L95.8761 24.3423L92.1696 24.4474L92.2262 26.4466ZM94.9048 25.3702L95.3731 41.8876L97.3723 41.8309L96.904 25.3136L94.9048 25.3702ZM96.3443 40.8597L92.6738 40.9637L92.7305 42.9629L96.401 42.8589L96.3443 40.8597ZM93.7007 41.9103L93.5461 38.9975L91.549 39.1035L91.7036 42.0163L93.7007 41.9103ZM91.6316 38.6493C91.347 39.2989 90.7817 39.9526 89.8296 40.5831L90.9339 42.2506C92.1028 41.4765 92.9813 40.5526 93.4635 39.4518L91.6316 38.6493ZM89.8431 40.5743C88.945 41.1484 87.9213 41.4586 86.7464 41.4919L86.8031 43.4911C88.3151 43.4482 89.6961 43.042 90.9203 42.2594L89.8431 40.5743ZM87.359 40.2341C88.9816 40.1881 90.3744 39.5819 91.4723 38.4199L90.0186 37.0463C89.2984 37.8086 88.4146 38.2033 87.3023 38.2349L87.359 40.2341ZM91.481 38.4106C92.5921 37.2044 93.0922 35.6775 93.0424 33.9225L91.0432 33.9791C91.0805 35.2948 90.7157 36.2895 90.01 37.0556L91.481 38.4106ZM93.0424 33.9225L93.0353 33.6706L91.0361 33.7272L91.0432 33.9791L93.0424 33.9225ZM93.0353 33.6706C93.002 32.4954 92.724 31.415 92.1796 30.4536L90.4392 31.4391C90.8047 32.0846 91.0109 32.8392 91.0361 33.7272L93.0353 33.6706ZM92.1796 30.4536C91.6417 29.5038 90.9112 28.7513 89.9902 28.2221L88.9938 29.9562C89.5861 30.2965 90.0672 30.7821 90.4392 31.4391L92.1796 30.4536ZM89.9902 28.2221C89.0707 27.6937 88.0659 27.4449 86.9973 27.4752L87.054 29.4744C87.7607 29.4543 88.4001 29.615 88.9938 29.9562L89.9902 28.2221ZM86.9973 27.4752C85.2215 27.5255 83.7466 28.1634 82.7199 29.469L84.292 30.7053C84.8874 29.9481 85.759 29.5111 87.054 29.4744L86.9973 27.4752ZM82.7273 29.4597C81.7347 30.6915 81.3059 32.2358 81.356 34.0017L83.3552 33.945C83.3155 32.5441 83.6536 31.4976 84.2846 30.7146L82.7273 29.4597ZM81.356 34.0017C81.4064 35.7815 81.9048 37.3152 82.9312 38.512L84.4494 37.2101C83.7873 36.438 83.3958 35.3798 83.3552 33.945L81.356 34.0017ZM82.9484 38.5316C84.0525 39.7531 85.5731 40.2847 87.359 40.2341L87.3023 38.2349C85.9694 38.2726 85.0631 37.8886 84.4321 37.1905L82.9484 38.5316ZM106.363 42.0803L107.297 42.438L107.443 42.0562L107.28 41.6814L106.363 42.0803ZM99.0436 25.2529L99.0153 24.2533L97.5365 24.2952L98.1266 25.6518L99.0436 25.2529ZM103.434 25.1285L104.372 24.7835L104.124 24.1085L103.405 24.1289L103.434 25.1285ZM107.258 35.5363L108.205 35.2133L108.201 35.2023L108.197 35.1913L107.258 35.5363ZM108.122 38.0688L107.176 38.3917L108.218 41.4461L109.086 38.3376L108.122 38.0688ZM108.842 35.4914L107.89 35.1856L107.884 35.204L107.878 35.2226L108.842 35.4914ZM112.25 24.8785L112.222 23.8789L111.515 23.899L111.298 24.5727L112.25 24.8785ZM116.497 24.7581L117.436 25.1003L117.94 23.7168L116.468 23.7585L116.497 24.7581ZM107.074 50.6315L107.102 51.6311L107.781 51.6119L108.014 50.9737L107.074 50.6315ZM103.044 50.7458L102.11 50.3881L101.574 51.7879L103.072 51.7454L103.044 50.7458ZM107.28 41.6814L99.9606 24.854L98.1266 25.6518L105.446 42.4791L107.28 41.6814ZM99.0719 26.2525L103.462 26.1281L103.405 24.1289L99.0153 24.2533L99.0719 26.2525ZM102.495 25.4734L106.32 35.8812L108.197 35.1913L104.372 24.7835L102.495 25.4734ZM106.312 35.8592L107.176 38.3917L109.069 37.7459L108.205 35.2133L106.312 35.8592ZM109.086 38.3376L109.805 35.7602L107.878 35.2226L107.159 37.8L109.086 38.3376ZM109.794 35.7972L113.202 25.1843L111.298 24.5727L107.89 35.1856L109.794 35.7972ZM112.279 25.8781L116.525 25.7577L116.468 23.7585L112.222 23.8789L112.279 25.8781ZM115.557 24.4159L106.134 50.2894L108.014 50.9737L117.436 25.1003L115.557 24.4159ZM107.046 49.6319L103.015 49.7462L103.072 51.7454L107.102 51.6311L107.046 49.6319ZM103.977 51.1036L107.297 42.438L105.43 41.7225L102.11 50.3881L103.977 51.1036ZM122.631 40.3226L123.109 39.4443L123.109 39.4443L122.631 40.3226ZM119.483 37.2785L118.619 37.7821L118.619 37.7821L119.483 37.2785ZM119.199 28.5351L118.308 28.0812L118.302 28.0939L119.199 28.5351ZM122.169 25.3176L121.642 24.4679L121.642 24.4679L122.169 25.3176ZM131.274 25.0595L130.788 25.9339L130.795 25.9378L131.274 25.0595ZM134.385 28.1046L133.514 28.5959L133.521 28.6081L134.385 28.1046ZM134.633 36.849L133.742 36.3953L133.742 36.3953L134.633 36.849ZM131.663 40.0665L131.136 39.2167L131.129 39.221L131.663 40.0665ZM130.446 36.5356L129.645 35.9378L129.64 35.9436L129.636 35.9495L130.446 36.5356ZM130.153 28.7287L129.39 29.3753L129.397 29.3837L130.153 28.7287ZM123.423 28.8835L122.623 28.2834L122.615 28.2947L123.423 28.8835ZM123.753 36.7253L123.006 37.3904L123.014 37.3988L123.753 36.7253ZM127.169 40.346C125.621 40.3898 124.277 40.0806 123.109 39.4443L122.152 41.2008C123.666 42.0251 125.367 42.3979 127.226 42.3452L127.169 40.346ZM123.109 39.4443C121.925 38.7999 121.011 37.9137 120.347 36.775L118.619 37.7821C119.47 39.2415 120.653 40.3846 122.152 41.2008L123.109 39.4443ZM120.347 36.775C119.68 35.6305 119.32 34.3426 119.279 32.8906L117.279 32.9472C117.329 34.7099 117.772 36.3284 118.619 37.7821L120.347 36.775ZM119.279 32.8906C119.238 31.4594 119.514 30.1606 120.097 28.9762L118.302 28.0939C117.567 29.5879 117.23 31.2117 117.279 32.9472L119.279 32.8906ZM120.09 28.9889C120.688 27.8144 121.551 26.8778 122.696 26.1674L121.642 24.4679C120.192 25.3677 119.075 26.576 118.308 28.0813L120.09 28.9889ZM122.696 26.1674C123.825 25.4671 125.161 25.0807 126.735 25.0361L126.678 23.0369C124.798 23.0902 123.109 23.5579 121.642 24.4679L122.696 26.1674ZM126.735 25.0361C128.31 24.9915 129.65 25.3021 130.788 25.9339L131.759 24.1851C130.263 23.355 128.558 22.9836 126.678 23.0369L126.735 25.0361ZM130.795 25.9378C131.976 26.5806 132.875 27.4633 133.514 28.5958L135.256 27.6133C134.429 26.1463 133.254 24.999 131.752 24.1813L130.795 25.9378ZM133.521 28.6081C134.189 29.7548 134.548 31.0312 134.589 32.4565L136.588 32.3999C136.538 30.6585 136.095 29.0524 135.249 27.601L133.521 28.6081ZM134.589 32.4565C134.63 33.9086 134.343 35.2148 133.742 36.3953L135.524 37.3028C136.288 35.8035 136.638 34.1625 136.588 32.3999L134.589 32.4565ZM133.742 36.3953C133.144 37.5697 132.281 38.5063 131.136 39.2168L132.19 40.9163C133.641 40.0165 134.758 38.8081 135.524 37.3028L133.742 36.3953ZM131.129 39.221C130.026 39.9176 128.717 40.3021 127.169 40.346L127.226 42.3452C129.084 42.2925 130.753 41.8243 132.197 40.912L131.129 39.221ZM127.244 39.1754C128.921 39.1278 130.298 38.4473 131.257 37.1217L129.636 35.9495C129.07 36.7319 128.293 37.1448 127.187 37.1762L127.244 39.1754ZM131.248 37.1333C132.193 35.8661 132.609 34.3271 132.559 32.5861L130.56 32.6428C130.599 34.0206 130.273 35.0956 129.645 35.9378L131.248 37.1333ZM132.559 32.5861C132.51 30.8309 131.975 29.304 130.909 28.0738L129.397 29.3837C130.118 30.2156 130.522 31.2792 130.56 32.6428L132.559 32.5861ZM130.916 28.0822C129.82 26.789 128.371 26.1582 126.66 26.2067L126.717 28.2059C127.837 28.1741 128.698 28.5583 129.39 29.3753L130.916 28.0822ZM126.66 26.2067C124.993 26.254 123.618 26.9564 122.623 28.2834L124.223 29.4836C124.847 28.6519 125.649 28.2362 126.717 28.2059L126.66 26.2067ZM122.615 28.2947C121.675 29.5841 121.262 31.1432 121.312 32.905L123.311 32.8483C123.271 31.4433 123.599 30.3403 124.231 29.4723L122.615 28.2947ZM121.312 32.905C121.361 34.6473 121.914 36.1639 123.006 37.3903L124.5 36.0603C123.757 35.2259 123.349 34.1767 123.311 32.8483L121.312 32.905ZM123.014 37.3988C124.132 38.626 125.569 39.2229 127.244 39.1754L127.187 37.1762C126.08 37.2076 125.208 36.8375 124.492 36.0519L123.014 37.3988Z" fill="#FCFCFC"/>
<ellipse cx="28.5137" cy="30.9503" rx="27.3386" ry="27.1724" transform="rotate(-1.62385 28.5137 30.9503)" fill="url(#paint0_linear)"/>
<defs>
<linearGradient id="paint0_linear" x1="28.5137" y1="3.77785" x2="28.5137" y2="58.1227" gradientUnits="userSpaceOnUse">
<stop/>
<stop offset="0.206406"/>
<stop offset="1" stop-color="#FCFCFC"/>
</linearGradient>
</defs>
</svg>
